<svg width="39" height="39" viewBox="0 0 39 39" fill="none" xmlns="http://www.w3.org/2000/svg">
<path fill-rule="evenodd" clip-rule="evenodd" d="M29.9072 35.9936C26.8957 37.8978 23.3265 39 19.5 39C15.6734 39 12.1043 37.8978 9.09275 35.9936C9.66065 29.8953 13.3623 25.6774 17.4164 24.5808C18.0801 24.7626 18.7787 24.8596 19.5001 24.8596C20.2214 24.8596 20.92 24.7626 21.5836 24.5808C25.6377 25.6775 29.3393 29.8954 29.9072 35.9936ZM33.481 33.0935C36.8966 29.5811 39 24.7862 39 19.5C39 8.73045 30.2696 0 19.5 0C8.73045 0 0 8.73045 0 19.5C0 24.7862 2.10342 29.5811 5.51895 33.0934C6.63924 28.1376 9.54998 24.0624 13.369 21.9235C12.2822 20.5742 11.6316 18.8587 11.6316 16.9912C11.6316 12.6456 15.1544 9.12281 19.5001 9.12281C23.8457 9.12281 27.3685 12.6456 27.3685 16.9912C27.3685 18.8587 26.7179 20.5742 25.631 21.9235C29.45 24.0625 32.3607 28.1377 33.481 33.0935ZM21.2783 20.4276C20.6955 20.3422 20.102 20.2982 19.5 20.2982C18.898 20.2982 18.3045 20.3422 17.7218 20.4276C16.4801 19.7837 15.6316 18.4866 15.6316 16.9912C15.6316 14.8548 17.3636 13.1228 19.5001 13.1228C21.6365 13.1228 23.3685 14.8548 23.3685 16.9912C23.3685 18.4866 22.52 19.7837 21.2783 20.4276Z" fill="white"/>
</svg>
