<svg width="188" height="448" viewBox="0 0 188 448" fill="none" xmlns="http://www.w3.org/2000/svg">
<path fill-rule="evenodd" clip-rule="evenodd" d="M0.5 427V331.5C0.5 319.902 9.90202 310.5 21.5 310.5H166.5C178.098 310.5 187.5 319.902 187.5 331.5V427C187.5 438.598 178.098 448 166.5 448H21.5C9.90202 448 0.5 438.598 0.5 427ZM114 336C109.582 336 106 339.582 106 344C106 348.418 109.582 352 114 352H161.5C165.918 352 169.5 348.418 169.5 344C169.5 339.582 165.918 336 161.5 336H114Z" fill="white"/>
<path fill-rule="evenodd" clip-rule="evenodd" d="M0 290V21C0 9.40203 9.40202 0 21 0H166C177.598 0 187 9.40202 187 21V290C187 301.598 177.598 311 166 311H21C9.40202 311 0 301.598 0 290ZM161 196C161 191.582 157.418 188 153 188C148.582 188 145 191.582 145 196V250C145 254.418 148.582 258 153 258C157.418 258 161 254.418 161 250V196Z" fill="white"/>
</svg>
