<svg width="188" height="448" viewBox="0 0 188 448" fill="none" xmlns="http://www.w3.org/2000/svg">
<path fill-rule="evenodd" clip-rule="evenodd" d="M0.5 427V331.5C0.5 319.902 9.90202 310.5 21.5 310.5H166.5C178.098 310.5 187.5 319.902 187.5 331.5V427C187.5 438.598 178.098 448 166.5 448H21.5C9.90202 448 0.5 438.598 0.5 427ZM114 329.5C105.992 329.5 99.5 335.992 99.5 344C99.5 352.008 105.992 358.5 114 358.5H161.5C169.508 358.5 176 352.008 176 344C176 335.992 169.508 329.5 161.5 329.5H114Z" fill="white"/>
<path fill-rule="evenodd" clip-rule="evenodd" d="M0 290V21C0 9.40203 9.40202 0 21 0H166C177.598 0 187 9.40202 187 21V290C187 301.598 177.598 311 166 311H21C9.40202 311 0 301.598 0 290ZM167.5 196C167.5 187.992 161.008 181.5 153 181.5C144.992 181.5 138.5 187.992 138.5 196V250C138.5 258.008 144.992 264.5 153 264.5C161.008 264.5 167.5 258.008 167.5 250V196Z" fill="white"/>
</svg>
