<svg width="524" height="524" viewBox="0 0 524 524" fill="none" xmlns="http://www.w3.org/2000/svg">
<rect width="524" height="524" rx="262" fill="#4CB9A5"/>
<path fill-rule="evenodd" clip-rule="evenodd" d="M168.5 465V369.5C168.5 357.902 177.902 348.5 189.5 348.5H334.5C346.098 348.5 355.5 357.902 355.5 369.5V465C355.5 476.598 346.098 486 334.5 486H189.5C177.902 486 168.5 476.598 168.5 465ZM282 374C277.582 374 274 377.582 274 382C274 386.418 277.582 390 282 390H329.5C333.918 390 337.5 386.418 337.5 382C337.5 377.582 333.918 374 329.5 374H282Z" fill="white"/>
<path fill-rule="evenodd" clip-rule="evenodd" d="M168 328V59C168 47.402 177.402 38 189 38H334C345.598 38 355 47.402 355 59V328C355 339.598 345.598 349 334 349H189C177.402 349 168 339.598 168 328ZM329 234C329 229.582 325.418 226 321 226C316.582 226 313 229.582 313 234V288C313 292.418 316.582 296 321 296C325.418 296 329 292.418 329 288V234Z" fill="white"/>
</svg>
